<svg width="60" height="60" viewBox="0 0 60 60" fill="none" xmlns="http://www.w3.org/2000/svg">
<path d="M37.5 27.5H15.125C14.5 27.5 13.875 28.125 13.875 28.75C13.875 29.375 14.5 30 15.125 30H37.5C38.25 30 38.75 29.375 38.75 28.75C38.75 28.125 38.125 27.5 37.5 27.5Z" fill="#1C1C1D"/>
<path d="M50.5 27.5H47.5C46.875 27.5 46.25 28.125 46.25 28.75C46.25 29.375 46.875 30 47.5 30H50.625C51.25 30 51.875 29.375 51.875 28.75C51.875 28.125 51.25 27.5 50.5 27.5Z" fill="#1C1C1D"/>
<path d="M35.625 43.75H16.875V46.25H35.625V43.75Z" fill="#1C1C1D"/>
<path d="M44 22.75L36.25 15V11.25C36.25 9.875 35.125 8.75 33.75 8.75H18.75C17.375 8.75 16.25 9.875 16.25 11.25V14.75L8.125 22.875C5.625 23.75 3.75 26 3.75 28.75C3.75 30.25 4.25 31.5 5.125 32.5C5.25 32.875 5.5 33.25 5.875 33.5L15.875 43.5L15 48.375C14.875 49.125 15.125 49.875 15.5 50.375C15.875 50.875 16.75 51.25 17.5 51.25H35C35.75 51.25 36.375 50.875 36.875 50.375C37.375 49.875 37.5 49.125 37.5 48.375L36.625 43.375L46.375 33.625C46.375 33.625 46.375 33.5 46.5 33.5C47.875 32.375 48.75 30.625 48.75 28.75C48.75 25.875 46.75 23.375 44 22.75ZM6.375 28.75C6.375 26.625 8 25 10.125 25C12.25 25 13.875 26.625 13.875 28.75C13.875 30.875 12.25 32.5 10.125 32.5C8 32.5 6.375 30.875 6.375 28.75ZM15.625 26L21.75 19.875C22 19.625 22.25 19.25 22.5 18.875H29.75C29.875 19.25 30.125 19.625 30.5 19.875L36.875 26.25C36.375 26.875 36.25 27.75 36.25 28.75C36.25 30 36.625 31.125 37.25 32.125L30.625 38.75H21.625C21.375 38.5 17.125 34.25 15.25 32.375C16 31.375 16.375 30.125 16.375 28.75C16.375 27.75 16 26.75 15.625 26ZM38.75 28.75C38.75 26.625 40.375 25 42.5 25C44.625 25 46.25 26.625 46.25 28.75C46.25 30.875 44.625 32.5 42.5 32.5C40.375 32.5 38.75 30.875 38.75 28.75ZM35.625 17.875L40.625 22.875C39.75 23.125 39 23.625 38.375 24.125L33 18.75H33.75C34.5 18.75 35.125 18.375 35.625 17.875ZM18.75 11.25H33.75V16.25H18.75V11.25ZM16.75 17.75C17.25 18.375 17.875 18.75 18.75 18.75H19.25L14 24C13.375 23.5 12.5 23 11.625 22.75L16.75 17.75ZM16.375 40.5L10.75 34.875C11.75 34.75 12.625 34.5 13.375 34L18.125 38.75C17.25 39 16.625 39.625 16.375 40.5ZM17.5 48.75L18.75 41.25H33.75L35 48.75H17.5ZM36.125 40.375C35.75 39.5 35 38.875 34.125 38.75L39 33.875C39.75 34.375 40.625 34.75 41.625 34.875L36.125 40.375Z" fill="#CAA05C"/>
<path d="M55 21.25H52.5C51.125 21.25 50 22.375 50 23.75V33.75C50 35.125 51.125 36.25 52.5 36.25H55C56.375 36.25 57.5 35.125 57.5 33.75V23.75C57.5 22.375 56.375 21.25 55 21.25ZM55 33.75H52.5V23.75H55V33.75Z" fill="#CAA05C"/>
</svg>
